PathFileType	4	(X/Y/Z)	 s10c0201.trc
DataRate	CameraRate	NumFrames	NumMarkers	Units	OrigDataRate	OrigDataStartFrame	OrigNumFrames
200	200	6	50	mm	200	1751	2000
Frame#	Time	racr			lacr			c7			jug			rlel			rdr			llel			ldr			s2			lic			ric			lasi			rasi			rpsi			lpsi			rgt			lgt			rth1			rth2			rth3			rth4			rlfc			rmfc			rsh1			rsh2			rsh3			rsh4			rlmal			rmmal			rcal			rtoe			rmt5			lth1			lth2			lth4			lth3			llfc			lmfc			llmal			lmmal			lcal			lmt5			lsh1			lsh2			lsh3			lsh4			ltoe			SBIKE			LBIKE			RBIKE			
		X1	Y1	Z1	X2	Y2	Z2	X3	Y3	Z3	X4	Y4	Z4	X5	Y5	Z5	X6	Y6	Z6	X7	Y7	Z7	X8	Y8	Z8	X9	Y9	Z9	X10	Y10	Z10	X11	Y11	Z11	X12	Y12	Z12	X13	Y13	Z13	X14	Y14	Z14	X15	Y15	Z15	X16	Y16	Z16	X17	Y17	Z17	X18	Y18	Z18	X19	Y19	Z19	X20	Y20	Z20	X21	Y21	Z21	X22	Y22	Z22	X23	Y23	Z23	X24	Y24	Z24	X25	Y25	Z25	X26	Y26	Z26	X27	Y27	Z27	X28	Y28	Z28	X29	Y29	Z29	X30	Y30	Z30	X31	Y31	Z31	X32	Y32	Z32	X33	Y33	Z33	X34	Y34	Z34	X35	Y35	Z35	X36	Y36	Z36	X37	Y37	Z37	X38	Y38	Z38	X39	Y39	Z39	X40	Y40	Z40	X41	Y41	Z41	X42	Y42	Z42	X43	Y43	Z43	X44	Y44	Z44	X45	Y45	Z45	X46	Y46	Z46	X47	Y47	Z47	X48	Y48	Z48	X49	Y49	Z49	X50	Y50	Z50	
1751	8.7550	443.678279	1282.784406	-17.477330	426.291522	1248.428193	-329.134253	398.672341	1326.260874	-183.165337	400.775767	1184.394890	-158.397015	430.598997	1028.714420	81.523609	601.535281	913.694686	10.615664	446.706136	1014.511006	-480.400964	618.146932	909.887191	-386.391868	-109.872868	1097.240914	-231.641922	75.468258	1115.252446	-354.136459	35.992184	1142.474613	-50.558651	101.023251	1037.213408	-313.131647	53.524247	1048.295654	-68.716821	-82.909469	1160.859007	-173.653528	-56.639594	1161.940023	-286.100862	-54.308721	1009.446785	-33.293947	-7.977912	977.893135	-406.939518	54.012694	895.453484	-1.205705	136.941008	863.599050	-8.072667	189.633949	796.469192	-15.523516	157.999046	894.498677	-11.528664	281.610941	732.952906	-28.253939	283.032852	724.979085	-143.445611	239.536670	621.589801	-5.352409	259.058252	535.142145	-16.663678	233.555848	453.080823	-24.075940	292.195739	537.292122	-36.377193	222.633340	355.478059	-40.125977	250.663509	370.962650	-118.672842	172.392985	337.979133	-90.235277	411.887221	300.594045	-78.747260	326.039728	278.634769	-19.466127	92.261692	887.439214	-410.047453	172.352911	860.389328	-389.678136	190.375342	890.531853	-378.193317	230.149160	794.103541	-377.154750	307.491402	723.616253	-352.427890	285.997794	713.829039	-233.546168	7.436513	501.036234	-377.589231	14.316575	485.982437	-298.525667	-53.231278	511.859311	-337.485607	32.523291	355.294576	-397.639790	206.941142	664.314650	-392.974637	161.236889	589.481943	-380.804713	82.592678	548.048625	-385.085087	180.115447	571.589184	-352.837466	108.481551	315.929747	-337.877402	-205.011355	833.910467	-223.944966	-78.246807	81.760735	-423.657581	-102.714266	80.415434	-24.366760	
1752	8.7600	444.221410	1281.790692	-19.474969	422.425735	1249.755227	-333.417066	397.763168	1326.239829	-185.344117	398.948064	1184.062843	-162.369248	430.796156	1028.132379	82.206453	601.439557	913.605148	11.059867	444.978066	1014.337822	-479.598804	618.007298	910.047124	-386.506521	-110.412124	1094.897029	-230.325827	74.274070	1114.615864	-353.156981	36.616627	1138.790225	-49.627233	100.516266	1035.953514	-311.887949	54.478833	1045.743591	-66.677694	-83.472686	1157.532573	-171.851421	-58.166082	1159.315432	-284.127677	-54.785342	1004.342463	-31.814222	-5.944422	976.326238	-406.035433	52.403108	888.779796	-0.253870	134.830483	855.842840	-8.060093	186.207761	787.779158	-16.980717	156.466785	886.337949	-11.149592	276.427274	724.119329	-30.161772	277.909874	716.376051	-144.661257	233.387845	612.233486	-6.646520	254.139039	525.963307	-17.303004	229.788236	443.665036	-24.937382	287.603942	528.447633	-36.401853	220.775380	346.228446	-40.330089	249.087627	361.666353	-119.474964	170.533780	329.486850	-90.506336	409.540785	289.332595	-78.136265	323.470265	268.352265	-19.862855	97.257757	888.992970	-408.557159	178.036260	865.098615	-386.576754	194.764132	896.008537	-375.056072	238.494432	801.355467	-374.939441	315.817068	733.944952	-349.899331	296.520437	722.461931	-230.517710	14.494285	511.549685	-376.896775	20.621352	495.935135	-298.142624	-45.820283	523.512909	-336.795773	36.292628	365.196707	-397.455985	215.152122	673.948630	-391.854876	168.382911	598.850413	-379.474953	89.529247	557.923018	-384.110143	187.093637	580.816974	-351.604351	111.179707	323.826515	-337.688522	-205.007356	833.921255	-223.901453	-78.242050	81.740944	-423.668298	-102.691096	80.426969	-24.352415	
1753	8.7650	444.709878	1280.632230	-21.541282	417.909937	1253.007766	-337.311240	396.569055	1326.332419	-187.248397	397.414464	1183.700276	-167.282783	430.900018	1027.504333	82.977638	601.342113	913.464292	11.707292	443.292842	1014.263183	-478.824333	617.813759	910.148673	-386.553918	-110.882591	1092.296039	-228.501329	72.975162	1113.953881	-352.363697	37.318161	1135.184791	-48.689574	99.962516	1034.419595	-310.848441	55.555751	1043.536985	-64.881986	-83.781369	1154.121958	-169.653336	-59.756531	1156.753283	-281.707561	-55.093660	999.313746	-30.055197	-3.692949	974.722170	-405.254158	50.883756	882.427465	0.668793	132.719460	848.155307	-8.065019	182.606416	779.221933	-18.477354	154.993910	878.403373	-10.675386	270.693991	715.183706	-31.817635	272.372615	707.468707	-145.945633	226.797168	603.136306	-7.684763	248.633719	517.096240	-17.933892	225.403975	434.437665	-25.986767	282.488209	519.955080	-36.368515	218.394562	337.129717	-40.689769	245.678815	351.342709	-119.587181	168.139004	321.145152	-90.827963	406.660968	277.818766	-78.616519	320.250443	258.165434	-20.227190	102.620663	891.608531	-407.175013	183.379747	870.767523	-383.710046	198.668161	902.639863	-372.150708	245.925917	809.200566	-372.157473	324.105497	745.023364	-347.186897	303.341536	730.386317	-228.344866	22.077967	521.672051	-376.179452	27.481237	505.747587	-297.535215	-37.668573	534.950186	-336.393207	40.835883	374.803833	-397.164354	222.872993	683.400976	-390.069258	175.758362	608.446777	-378.090981	96.835516	567.771452	-383.128499	194.402045	590.283750	-350.217594	114.512254	331.534820	-337.448782	-205.004554	833.919840	-223.834281	-78.263050	81.719963	-423.679071	-102.702513	80.419607	-24.347778	
1754	8.7700	445.198207	1279.370581	-23.721513	414.026924	1255.580496	-341.765669	395.455872	1326.208750	-189.659323	396.129967	1183.229015	-172.357108	430.990485	1026.841555	83.888667	601.265410	913.344185	12.422775	441.578423	1014.265414	-478.020110	617.580099	910.172815	-386.539970	-111.304915	1089.711964	-227.453410	71.432496	1113.268605	-351.708939	38.254857	1131.496971	-47.764674	99.332831	1032.947460	-310.088966	56.687233	1041.038185	-62.907297	-84.414248	1150.900391	-166.711906	-61.775477	1153.847948	-278.947977	-55.371415	994.341287	-28.014904	-1.889369	973.322243	-404.251262	49.665820	876.374553	1.789070	130.581150	840.809115	-8.111094	178.848255	770.964910	-19.882952	153.515518	870.519807	-10.406276	264.706505	705.823664	-33.139508	266.662378	698.970115	-147.323011	220.144120	594.095435	-8.705760	242.782108	508.378379	-18.611846	220.378186	425.441166	-27.081821	276.927845	511.574155	-36.374230	215.318610	328.426097	-41.140557	243.502413	342.689901	-120.333191	165.056167	312.916662	-91.307952	403.287420	266.395933	-79.682653	316.430444	248.310050	-20.642466	106.847791	894.900504	-404.806403	188.273004	877.337883	-380.925793	201.979431	909.464841	-368.129560	253.448933	818.352094	-370.084573	332.132856	756.600012	-344.345420	309.965149	738.976142	-226.023361	30.083569	531.663645	-375.278982	36.111989	515.399340	-296.462600	-28.904668	546.053486	-336.153309	45.854342	384.193597	-396.946514	229.948539	692.655916	-387.607714	183.426460	618.188817	-376.645022	104.420973	577.596872	-382.136919	202.003902	599.687368	-348.831889	118.488318	339.167563	-337.230265	-204.970222	833.927414	-223.766629	-78.243401	81.755091	-423.661551	-102.689115	80.389471	-24.348933	
1755	8.7750	445.666255	1278.033788	-26.006270	410.248160	1258.069564	-346.337577	394.279333	1326.102536	-192.068417	394.868267	1182.831380	-177.376774	430.987911	1026.165036	84.853052	601.310037	913.245438	13.280348	439.915031	1014.288821	-477.253266	617.266172	910.143710	-386.456186	-111.887406	1087.257278	-225.106524	69.725557	1112.697161	-351.253923	39.337693	1127.823856	-46.821960	98.665101	1031.401756	-309.516239	57.798498	1038.423689	-61.246969	-84.938205	1147.696133	-163.508088	-63.392343	1152.033502	-276.397080	-55.354414	989.813858	-25.638039	-0.215876	972.090242	-403.298498	48.543910	872.678970	3.496413	128.427490	833.866802	-8.083385	174.873230	762.965242	-21.141813	152.028005	862.998833	-10.208809	258.685801	696.589719	-34.752617	260.637166	690.016477	-148.652348	213.395005	585.368972	-9.510346	236.709783	499.585609	-19.351050	214.867874	416.648805	-28.073195	271.021583	502.990936	-36.617881	211.636870	319.949794	-41.550411	238.907472	332.348218	-120.798800	161.305724	304.770042	-91.882669	399.105589	255.547775	-80.008536	312.008452	238.655367	-21.094663	110.617348	899.188027	-402.297842	192.638117	884.779924	-378.130398	204.782530	916.922296	-364.159085	260.226672	828.416266	-368.289416	339.701321	768.526603	-341.311696	316.331527	747.669364	-223.498779	38.611804	541.181419	-374.498047	44.084696	524.834317	-295.770142	-19.795147	556.468092	-335.444339	51.360200	393.296976	-396.553476	237.838354	702.526575	-385.784949	191.269557	627.999714	-375.187561	112.284871	587.392952	-381.030225	209.736355	609.533422	-347.732626	122.940539	346.710397	-336.981933	-204.832535	833.771876	-224.435071	-78.235628	81.737355	-423.641144	-102.691948	80.386608	-24.347414	
1756	8.7800	446.144009	1276.660316	-28.323146	406.513028	1260.882011	-351.496385	392.975879	1326.093143	-194.667418	393.796698	1182.557817	-182.853283	430.963199	1025.441334	85.890556	601.378369	913.189478	14.105711	438.331633	1014.413653	-476.594135	616.858317	910.067776	-386.268145	-112.141021	1084.856167	-222.515753	67.741212	1112.298603	-350.962745	40.555502	1124.077464	-46.010015	97.945645	1029.840209	-309.218188	58.853146	1035.927843	-59.838099	-85.222123	1144.590755	-160.204016	-65.175744	1150.229377	-273.335289	-55.279021	985.565371	-23.357843	1.253916	971.294999	-402.415288	47.520492	867.672055	4.512849	126.168999	827.316882	-8.073077	170.633446	755.290723	-22.112478	150.627194	855.852818	-9.971062	252.475643	687.755344	-35.776256	254.209785	680.973784	-149.990070	206.680073	576.692927	-10.284528	230.407302	491.076910	-19.973931	209.018380	408.111952	-29.027176	264.321792	494.574729	-37.075067	207.444382	311.656516	-42.074889	234.393741	323.411130	-121.303322	157.731228	296.845909	-92.649369	394.215197	245.010081	-80.355278	306.822827	229.376822	-21.479903	113.973747	904.218905	-400.076031	196.321912	892.701989	-375.389853	206.990587	924.954473	-360.565193	266.107568	838.815892	-365.668489	346.781810	780.579834	-338.439910	322.799897	757.238995	-220.752789	47.500932	550.424857	-373.690953	52.365572	533.624420	-295.112605	-10.196861	566.845770	-335.069513	57.538222	402.112341	-396.173134	245.781545	712.482632	-383.815174	199.314832	637.779750	-373.690519	120.451776	597.141387	-379.931628	217.693688	619.353818	-346.203418	127.951493	353.867437	-336.603970	-204.806211	833.753354	-224.293990	-78.225721	81.733139	-423.621025	-102.688537	80.351709	-24.343477	
